<svg xmlns="http://www.w3.org/2000/svg" viewBox="0 -0.5 120 36" shape-rendering="crispEdges"><metadata>Made with Pixels to Svg https://codepen.io/shshaw/pen/XbxvNj</metadata><path stroke="#9b994a" d="M94 1h1m-1 1h1m-4 1h1m2 0h2m-6 1h2m1 0h2m-5 1h2m1 0h3m-5 1h1m1 0h2m-3 1h2m-2 1h3m1 0h1M32 9h2m58 0h1m2 0h1m1 0h1m-68 1h3m17 0h1m-2 1h2M9 12h2m36 0h2m2 0h1M7 13h9m32 0h2M7 14h1m1 0h2m1 0h1m1 0h1m34 0h1m-40 1h3m2 3h1m-3 1h1m52 1h1m-2 3h1m-1 1h1m-1 1h1m-33 2h2m-2 1h1m-5 1h2m-3 1h2m-2 1h1"/><path stroke="#f2beae" d="M78 2h1m2 0h2m-5 1h4m-4 1h3M35 5h1m1 0h2m-3 1h5m35 0h1M36 7h2m1 0h1m48 0h2M37 8h1m7 0h1m42 0h2M44 9h2m42 0h2m-52 1h1m5 0h2m-12 1h1m10 0h2m-13 1h1"/><path stroke="#edb497" d="M79 2h2m-4 1h1m-2 1h2m21 0h1M75 5h3m-3 1h1M38 7h1m5 4h1m33 19h1m0 1h2"/><path stroke="#b7af60" d="M93 2h1m-2 1h2m-2 1h1m-1 1h1M32 7h1m1 0h1m-5 1h5m60 0h1M31 9h1m68 1h1m-56 4h1M9 15h1m3 5h1m19 9h1m42 0h1m-1 1h1m-52 1h2m-3 1h2"/><path stroke="#ddce9f" d="M39 3h1m-2 1h3m-2 1h3m27 3h1m3 0h1m19 5h1m0 1h1m-1 1h1m-73 4h1m-1 2h1m44 0h1m-48 1h1m43 1h1m-1 2h1m0 1h1m-8 4h2m-2 1h2m-1 1h1"/><path stroke="#f1c5c2" d="M82 3h2m1 0h3m11 0h2M88 4h2m10 0h1M86 5h1m1 0h1m10 0h2M46 6h1m32 0h1m9 0h1M40 7h1m4 0h4m31 1h1M35 9h2m-3 1h4m-3 1h3m45 0h1m-49 1h3m1 0h3m-4 1h4m-3 1h3m57 14h1"/><path stroke="#ddaeaa" d="M101 3h1M42 6h2m-2 1h2m-2 1h2m-2 1h1m-2 2h1m46 11h2m5 2h1m1 1h2m-4 3h1m2 0h1m-22 1h1m19 1h1m-1 1h1m3 0h1"/><path stroke="#f48e8a" d="M81 4h1m-5 2h1m2 0h2m-6 1h2m9 0h1M40 8h1m46 0h1M73 9h1m5 0h1m6 1h3m-1 3h2"/><path stroke="#f18896" d="M82 4h2m1 0h2m-9 2h1m-7 3h1m3 0h1m6 3h3m-2 1h2m-8 1h1m4 0h2m1 0h1m-3 1h2m-3 1h2"/><path stroke="#e36471" d="M84 4h1m-1 1h2m1 0h1m-3 1h1m1 0h1M75 7h1m8 0h1m1 0h1m-8 1h1m6 0h1M74 9h2m1 0h1m2 0h1m3 0h1m1 0h1m-14 1h4m1 0h1m-5 1h1m3 0h2m7 0h2m-15 1h2m4 0h1m7 0h1"/><path stroke="#ed9da8" d="M87 4h1m1 1h1m-4 1h1m1 0h1m-9 1h1m-4 3h1m-2 1h2m-2 1h4m-3 1h7"/><path stroke="#8b7c47" d="M95 4h1m-5 3h1M35 8h1m61 0h1M8 14h1m7 0h1m-2 1h2m1 0h1m-4 1h3m-3 1h1m-3 1h2m3 0h1m47 0h1m-52 1h1m49 0h1m-55 1h1m59 0h1m2 0h1m-39 1h1m34 0h1m-38 1h2m-3 1h3m-5 3h2m-2 1h1"/><path stroke="#ecd4c2" d="M36 5h1m4 1h1m2 0h1m-1 2h1m1 0h2m-2 1h1m-1 1h2m-10 1h1m4 0h1m3 0h1m-5 1h4m-3 1h2m-21 1h1m-3 3h1m74 14h1"/><path stroke="#e95e5f" d="M78 5h2m1 0h3m-2 1h2M74 7h1m3 0h1m2 0h1m-8 1h2m5 0h4m-3 1h2m0 1h1m4 2h1m-11 2h1"/><path stroke="#a63646" d="M80 5h1m3 1h1m-3 1h2m1 0h1M76 8h1m8 0h1m-5 1h1m3 0h1m-7 1h3m1 0h1m1 0h1m-11 1h1m5 0h1m2 0h3m-5 1h1m3 0h1m-11 1h1m9 0h1m-2 1h1"/><path stroke="#b8bc89" d="M71 6h2M33 7h1m38 0h2m-4 1h1m0 1h1m-1 1h1m-7 1h2M7 12h1m58 0h2m-22 1h1m16 0h1m1 0h3m-7 1h7m-5 1h5m-5 3h2m-9 1h1m6 0h1m3 0h1m-12 1h4m2 0h2m4 0h1m-13 1h4m3 0h1m4 0h2m-14 1h1m1 0h2m3 0h1m6 0h1m-15 1h4m3 0h1m-8 1h2m6 0h1m-6 1h2m1 0h1m-5 1h3m2 0h1m-7 1h4m1 0h1m-6 1h4m1 0h1m7 0h1m-14 1h5m-5 1h1m2 0h1m-4 1h1m2 0h2m-4 1h1m1 0h3m-5 1h1m1 0h3m-5 1h3m-3 1h1"/><path stroke="#807d36" d="M90 6h1m-1 1h1m5 0h1M36 8h1m53 0h2M29 9h2m3 0h1m55 0h1m-58 1h1m14 0h2m-2 1h1m2 0h1m-3 1h1m-3 1h1m-2 1h1m-10 8h1m-1 1h1m-8 5h1"/><path stroke="#dad9b8" d="M92 6h1M69 7h3m-1 1h2m-3 1h1m-24 5h1m19 6h1m-2 2h2m-2 1h1m-1 1h1m-1 1h1m-1 1h1m0 1h1m-11 5h1"/><path stroke="#c3906b" d="M96 6h1m-54 4h1m26 7h1m0 1h1m-31 1h2m-2 1h1m-3 3h1m39 7h2m19 1h1"/><path stroke="#a79445" d="M35 7h1m62 0h1m1 0h2m-4 1h3m-3 1h1m0 1h1M6 14h1m-2 1h2m7 0h1M4 16h2m7 0h2M4 17h3m5 0h2m-3 1h2M3 19h1m2 0h1m5 0h1m1 0h1m51 0h1M4 20h2m3 0h1m2 0h1m1 0h1m-5 1h1m55 0h1M2 22h1m5 0h1m58 4h1m3 2h1"/><path stroke="#c88e8a" d="M41 7h1m-1 1h1m-3 3h2m30 3h1m-29 4h1m51 5h1m-7 1h2m-2 1h3m-2 1h1m6 0h1m-5 1h1m0 1h1m-1 1h1m4 0h1m-1 1h1"/><path stroke="#d86d75" d="M79 7h1M38 8h2m47 1h1m-6 1h1m-10 1h1m8 0h1m4 1h1m-1 1h1m-7 2h3m-2 1h1"/><path stroke="#b8a749" d="M94 7h2m1 0h1m1 0h1m1 1h1m-3 1h2m3 0h1m-74 4h1m-1 1h1M8 15h1m22 0h1M6 16h5m1 0h1m18 0h1M3 17h1m3 0h3m1 0h1m18 0h2M4 18h7m20 0h1M4 19h2m1 0h5m-9 1h1m2 0h2m-6 1h5m2 0h1m-9 1h1m-1 1h1m-2 1h2m-2 1h1"/><path stroke="#702a2f" d="M77 8h2M39 9h1m38 0h1m1 2h1m0 1h1m-1 2h2m-36 2h1m0 4h1"/><path stroke="#a3833d" d="M102 8h1M43 9h1m-2 2h1m-17 2h1m-2 2h2m42 0h4m-3 1h1m-61 4h1m61 0h2m-2 1h2M3 22h3m66 0h1"/><path stroke="#86523a" d="M103 8h1m-71 4h1m-1 1h1m1 0h3m-5 1h1m0 1h2m1 0h3m-3 1h3m26 0h1m-1 1h1m17 2h1m-21 1h1m-1 1h1m22 0h1m-16 5h1"/><path stroke="#7c7f45" d="M28 9h1m-19 1h1m2 0h1m75 0h1m2 0h1m1 0h5m2 0h1M8 11h6m81 0h2m-82 1h1m0 1h1m-4 1h1m-4 3h1m25 5h1m0 2h1m-4 2h1"/><path stroke="#d59654" d="M37 9h1m-16 2h1m1 0h1m13 6h1m34 0h1m-40 1h3m1 0h1m-5 1h2m6 1h1m-3 1h1m-1 1h2m33 0h1m-8 2h1m0 1h1m9 2h1m1 3h1"/><path stroke="#d8722e" d="M38 9h1m6 14h1m-2 1h1m-2 2h1m7 0h1m-9 1h1"/><path stroke="#2c201d" d="M40 9h1m-25 1h2m3 0h1m18 0h1m62 0h1m-86 2h1m1 0h1m35 0h1m41 0h1m3 0h1m-6 1h1m8 0h1m-70 1h1m39 0h1m27 0h1m3 0h1m-69 1h1m37 0h1m6 1h1m18 3h1"/><path stroke="#995a4c" d="M41 9h1m28 3h2m-27 3h1m-3 1h3m-2 1h3m-3 1h4m3 3h1m2 0h1m-3 1h2m14 0h1m-22 1h1m21 0h1m-23 1h1m21 0h1m-23 1h1m-1 1h1m-2 3h1m-2 1h2"/><path stroke="#4f4829" d="M91 9h1m1 0h2m1 0h1m-86 1h2m5 0h3m1 0h1m36 0h1m30 0h2m-77 1h2m1 0h4m-3 1h1m0 1h1m-10 1h1m3 0h1m-3 1h1m66 1h1m0 1h2"/><path stroke="#d3a95a" d="M101 9h3m-76 1h1m-6 1h1m7 0h1m-11 1h1m9 0h1m55 4h1m1 1h1m-57 3h1m7 1h1m-16 2h1m42 4h1m7 0h2m-2 1h2m0 1h1m0 3h1"/><path stroke="#44342c" d="M14 10h2m26 2h1m-25 2h1m57 0h1m3 0h1m-5 1h1m3 0h1m-5 1h2m3 0h1m-2 1h1m3 0h1m-4 1h1m5 1h1m18 2h1"/><path stroke="#bd7a43" d="M24 10h4m-3 1h1m45 0h2m-1 1h1m-1 1h1m-39 1h1m1 1h1m-1 1h1m34 0h3m-39 1h2m2 0h1m-3 1h1m1 0h1m32 0h1m-37 1h2m5 1h3m0 3h1m4 0h2m2 0h1m-32 1h1m30 0h1m-35 1h1m24 0h1m26 1h1m-29 1h1m27 0h1m-29 1h1m-2 2h1m-1 1h1m-2 1h1m-2 1h1"/><path stroke="#dcb24f" d="M29 10h1m-2 1h3m59 0h1m-68 1h1m3 0h4m59 0h2m-65 1h4m59 0h3m-70 1h1m4 0h3m-10 1h3m4 0h3m64 0h1m0 1h1m-78 1h1m1 0h2m65 0h1m-70 1h3m6 0h3m42 0h1m14 0h1m-70 1h3m6 0h3m-11 1h1m6 0h2m-9 1h1m6 0h1m-3 1h3m-4 1h2m-5 1h2m47 0h1m5 0h1m-57 1h1m49 0h1m1 3h2m5 0h1m-8 1h2m7 2h1m-1 1h1"/><path stroke="#ad6668" d="M39 10h1m28 0h1m0 1h1m-1 1h1m32 6h1m11 1h1m-8 2h2m5 0h1m-21 1h2m10 0h5m-17 1h1m12 0h3m-1 1h1m2 0h1m1 0h3m0 1h1m-26 2h1"/><path stroke="#67432d" d="M41 10h1m-9 1h1m1 3h2m1 0h1m-22 1h1m22 0h1m24 2h1m-50 1h2m46 1h1M7 21h1m3 0h2m79 5h1"/><path stroke="#4f2c2c" d="M42 10h1m10 0h2m-23 1h1m22 0h1m-18 1h1m16 0h1m40 0h2m-50 2h1m48 0h1m-65 1h1m13 0h2m52 0h1m-69 1h1m65 0h1m-51 1h1m33 0h1m16 0h1m-50 1h1m48 1h1m5 0h1m-15 4h1m22 0h1"/><path stroke="#673f47" d="M51 10h2m0 1h2m-5 1h1m-1 1h1m5 0h1m-7 1h1m4 0h1m42 0h1m-2 1h1m-46 1h1m44 0h1m12 0h1m-59 1h2m43 0h1m-46 1h2m59 0h1m-63 1h4m-4 1h1"/><path stroke="#89825b" d="M56 10h3m4 0h1m-8 1h1m1 0h1m1 0h4m-4 1h2m1 0h1m-12 2h1m26 3h1m-63 2h1m62 0h4m-4 1h3m-46 1h1m41 0h3m1 0h2m-6 1h2m1 0h4m1 0h1m-27 1h1m18 0h1m1 0h6m-27 1h1m20 0h2m1 0h1m1 0h1m-27 1h1m-26 1h1m24 0h1"/><path stroke="#6b673e" d="M60 10h3m30 0h1m8 0h1m-89 1h1m2 0h1m39 0h1m33 0h4m2 0h3m-89 1h4m1 0h2m-1 1h3m-3 1h1m1 0h1M7 15h1m11 0h1m-9 1h1m6 0h1m-1 1h1m63 1h1m-1 3h1m1 3h1m-50 1h1m48 0h3m-57 1h1m-1 1h1"/><path stroke="#a39f71" d="M64 10h2m6 0h1m-9 1h1m-8 1h2m3 0h1m1 0h2m-34 1h1m28 0h2m1 0h1m-5 1h1m-9 1h2m7 2h1m-3 1h2m1 0h1m-6 1h4m1 0h1m5 0h1m-9 1h1m22 0h2m-25 1h1m24 0h1m-29 1h1m3 0h1m-27 2h1m24 0h1m1 0h1m0 1h1m-2 1h1m-2 1h1m1 0h1m-3 1h1m1 0h2m-3 1h2m-3 1h3m-2 1h2m-7 2h1m1 0h1"/><path stroke="#9b5658" d="M66 10h2m1 0h1m-3 1h2m-1 1h1m0 1h1m31 5h1m-1 1h1m1 0h1m11 0h1m-17 1h5m11 0h1m-15 1h3m11 0h2m-69 1h1m55 0h2m5 0h1m1 0h4m-69 1h1m57 0h1m3 0h5m1 0h1m-9 1h1m4 0h1m-67 3h1"/><path stroke="#a76c6b" d="M70 10h1m-1 3h2m-18 1h1m15 0h1m-16 1h1m13 5h1m37 0h1m6 0h1m-45 1h1m38 0h1m-41 1h1m-22 2h1m44 0h2m-49 4h2"/><path stroke="#4e2f3f" d="M104 10h4m-8 1h3m1 0h6m-11 1h3m1 0h1m-6 1h1m0 1h1m13 5h1"/><path stroke="#dc923f" d="M26 11h1m-3 1h3m45 2h1m0 1h1m-32 6h1m-1 1h1m31 0h1m-21 1h1m-3 1h3m-4 1h4m-3 1h2m-2 1h2m-1 1h1m26 0h1"/><path stroke="#e5c169" d="M27 11h1m61 0h1m-68 1h1m69 0h3m-1 1h2m-9 1h7m1 0h1m-9 1h7m-73 1h2m65 0h6m-74 1h1m69 0h4m-5 1h6m-6 1h6m-66 1h1m60 0h6m-68 1h1m63 0h5m-80 5h1m-2 1h1m52 2h1m7 1h1m-2 1h2m-1 1h1"/><path stroke="#835769" d="M52 11h1m-1 1h3m-2 1h3m43 2h2m-1 1h2m3 0h1m5 0h1m-13 1h1m4 0h11m-12 1h1m1 0h6m1 0h1m-6 1h6m-4 1h5m-2 1h1"/><path stroke="#784c48" d="M70 11h1m-25 4h1m30 0h1m-32 1h1m-14 1h1m13 0h1m54 2h1m-51 1h2m1 0h1m-8 1h1m3 0h2m1 0h1m37 2h1m-22 2h1m20 0h1"/><path stroke="#67445a" d="M103 11h1m0 1h5m-10 1h7m1 0h4m-11 1h5m1 0h3m1 0h2m-10 1h11m-11 1h3m1 0h4m2 0h2m-11 1h1m0 1h1m6 0h1"/><path stroke="#665245" d="M32 12h1m45 3h1m0 1h1m-4 1h2m-2 1h1m1 0h1m1 0h1m-5 1h1m1 2h1m2 1h1m-1 1h1m-1 1h1m14 4h1"/><path stroke="#e48a32" d="M73 12h1m-31 9h2m0 3h1m5 0h1m-8 1h2m-2 1h2m8 0h1m-11 1h1m-2 1h2m-2 1h2m-2 1h1m-2 1h2m-2 1h1"/><path stroke="#e5b543" d="M21 13h3m-4 1h3m1 0h1m-6 2h2m2 0h1m70 0h2m-72 1h1m69 0h3m-75 1h1m3 0h2m46 0h1m20 0h1m-69 1h1m67 0h1m-77 1h1m1 0h1m74 0h1m-79 1h2m5 0h2m70 0h1m-80 1h2m2 0h3m-7 1h1m2 0h3m-7 1h2m4 0h1m49 0h3m-59 1h1m1 0h1m55 0h3m-9 1h2m3 1h1m-7 1h2m4 0h1m-5 1h1m3 0h1m-5 1h1m3 0h1m-1 1h1"/><path stroke="#ecb52d" d="M24 13h2m48 1h1m-51 1h1m-2 3h3m70 0h1m-74 1h4m69 0h2m-76 1h5m70 0h1m-77 1h1m1 0h2m-4 1h1m-3 1h2m-2 1h2m-3 1h1m-1 1h1"/><path stroke="#af7052" d="M34 13h1m0 3h1m1 1h1m33 0h2m-30 2h4m0 2h1m-2 1h2m3 0h1m2 0h2m-3 1h1m13 0h2m1 0h1m-25 1h1m-1 2h1m-1 1h1m-2 2h1"/><path stroke="#bbaf8f" d="M42 13h1m14 0h2m-27 1h1m9 0h1m14 0h2m-27 1h1m24 0h2m-27 1h1m8 0h1m11 0h3m1 0h1m-4 1h2m5 2h1m-1 1h1m-1 1h1m24 0h1m-1 1h1m-55 5h1"/><path stroke="#e8a238" d="M73 13h1m-1 1h1m-54 1h1m53 0h1m-50 2h3m46 0h1m0 1h1m-2 1h2m-8 6h1m-1 1h1m-1 1h1m13 5h1"/><path stroke="#99724f" d="M26 14h1m15 1h1m-3 1h1m-7 1h1m5 0h1m44 1h1m-53 1h1m51 0h2M8 20h1m76 0h2M8 21h1m1 1h1m60 4h1m-1 1h2"/><path stroke="#bb8d32" d="M27 14h1m-1 1h1m-4 1h7m-3 1h2m44 4h1m-2 1h1m-2 1h4m-9 1h1m-1 1h1"/><path stroke="#915661" d="M53 14h1m2 0h1m-3 1h1m1 0h1m41 0h1m-43 1h1m41 0h1m-43 1h1m41 0h1m2 0h2m-5 1h3m13 0h1m-16 1h1m4 0h1m-51 1h1m49 0h3m1 0h1m-5 1h2m4 0h2m1 0h1m-2 1h1m4 1h1m-1 1h1m-70 1h1m69 0h1m-71 1h1m-1 1h1"/><path stroke="#835f40" d="M34 16h1m50 0h1m-72 1h1m1 0h2m67 0h1m-53 1h1m31 0h1m17 0h2m-20 2h1m-1 1h1M9 22h1m54 0h2M2 23h1"/><path stroke="#967566" d="M78 16h1m-37 1h2m34 0h1m7 0h1m-46 1h2m34 0h1m1 0h1m6 0h1m-10 1h3m-40 1h1m36 0h3m7 0h1m-11 1h1m0 1h1m7 2h1m0 1h1"/></svg>