<svg xmlns="http://www.w3.org/2000/svg" width="952.422" height="257.574"><path d="M116.452 249.961c-18.943-30.082-45.147-55.473-75.309-74.869C19.704 152.858 6.397 125.3 1.389 94.828c-7.68-33.915 17.484-81.134 50.917-88.077 30.019 10.112 60.381 39.462 83.748 47.25 11.033-32.473 44.156-69.837 79.993-46.944 40.671 3.185 41.003 43.618 26.69 72.832-7.57 30.645-19.217 56.098-37.426 81.815-22.869 27.206-42.349 56.034-65.799 82.925-4.657 7.003-15.928 11.742-23.059 5.333zm18.68-35.328c26.162-34.1 57.421-65.99 74.779-105.6 8.393-29.474 40.08-78.448-5.843-88.855-27.699-5.424-46.917 33.788-54.493 56.205-22.978 40.36-37.019-27.447-61.717-34.092-21.93-14.424-51.084-19.777-58.027 14.863-17.644 29.467-.988 67.802 18.618 92.048 21.997 22.986 46.105 46.48 72.572 63.177 1.287 10.784 8.577 8.234 14.11 2.25zm676.69 40.282c-15.753-26.089-8.582-65.385-3.712-96.099 13.167-28.957 24.312 11.392 14.472 25.986-7.427 24.17 8.911 49.623 2.365 69.716-6.45-1.003-6.622 7.05-13.125.397zm-191.75.53c-17.972-10.348-2.387-56.674-24.568-22.715-20.14 33.596-60.515 9.632-60.053-22.339 3.307-28.06 28.703-63.567 59.621-55.794 28.497 6.953 37.474 39.034 33.642 69.091 6.027 12.951 21.624 33.511-8.642 31.756zm-50.667-24.626c18.649-8.645 51.14-53.58 12.974-57.172-24.467.811-41.184 55.774-12.974 57.172zm287.98 20.5c-30.677-21.588 3.695-67.154 19.879-90.123 23.483-36.639 74.38-14.312 59.638 28.058-10.726 33.745-51.786 16.348-69.422 26.863-.362 40.768 32.659 15.951 57.551 14.014 17.723-2.35 41.013 7.126 17.356 13.032-36.512 6.698-46.517 14.944-85.002 8.156zm45.351-57.34c29.748-11.735 13.652-51.21-10.229-21.216-13.776 8.248-3.836 28.443 10.229 21.215zM494.846 246.1c-16.552-15.814 8.317-78.058-21.458-69.974-20.1 17.196-21.679 73.045-49.607 69.145-21.711-18.36 19.631-87.404-22.709-74.536-19.661 22.296-14.699 70.73-42.641 79.302-8.694-28.737-9.49-69.804 2.058-96.197 22.257-3.363 3.425 65.601 20.145 19.62-3.469-44.243 70.47-31.223 60.771 10.323 10.31 7.505 21.396-55.949 51.084-28.248 21.693 23.98 13.085 62.297 21.566 92.102-4.959 7.172-14.938 5.33-19.21-1.537zm166.15-4.89c-6.013-25.437-11.633-71.603 1.533-88.195 31.239 9.096 3.669 58.528 18.125 82.614-3.589 6.536-13.56 13.772-19.657 5.582zm49.509 3.351c-23.666-15.39 4.035-31.67 17.997-18.516 45.555-7.283-8.064-23.89-25.689-26.766-22.424-27.294 31.171-54.942 56.644-47.984 26.172 5.093 4.354 38.144-13.735 18.965-25.992.576-29.156 22.14-1.018 22.92 43.746 4.403 35.446 49.328-4.63 49.636-9.783 1.294-19.691 2.516-29.57 1.745zm-42.765-135.33c-31.317-24.125 37.046-30.14 11.774-.983l-6.44 2.386zm156.47-15.225c-37.993-18.736 34.739-31.089 12.916-.788-3.624 2.747-9.01 3.381-12.916.788z"/></svg>