<svg xmlns="http://www.w3.org/2000/svg" viewBox="0 -0.5 120 33" shape-rendering="crispEdges"><metadata>Made with Pixels to Svg https://codepen.io/shshaw/pen/XbxvNj</metadata><path stroke="#f0c87c" d="M55 0h1m2 2h1m-1 1h1m-3 1h1m0 1h1m2 2h2m16 0h1M61 8h1m10 1h1m-1 1h1m-38 3h1m74 8h2m-1 2h1"/><path stroke="#e5d8a1" d="M55 1h2m21 5h1m-3 1h2m-2 1h1M21 27h2m13 4h1"/><path stroke="#f4c8bd" d="M22 4h1m-1 1h2m-1 1h1m-2 2h2m1 0h2m-2 1h2m1 1h1m-7 1h1m0 1h2m2 0h1m-1 1h2m2 3h2m-8 1h4"/><path stroke="#d2a561" d="M45 4h2m-2 1h1m-1 1h1m11 1h2m-18 3h1m8 3h1m-7 2h1m0 1h1m33 1h1m-7 1h6m-25 5h1"/><path stroke="#f5c99d" d="M47 4h1m33 2h1M23 7h1m56 0h1m-2 1h1M23 9h1m51 0h1m-52 6h2m3 0h1m17 10h1"/><path stroke="#c7c693" d="M46 5h1m40 6h1m-2 1h2m1 2h1m6 0h2m-12 1h1m1 0h2m5 0h2m-11 1h1m1 0h1m5 0h3m-11 1h3m3 0h3m-9 1h1m4 2h1m-1 1h1m1 0h2m-4 1h6m-85 1h6m-6 1h3m-4 1h2m11 0h1m-2 1h1"/><path stroke="#ddd9bd" d="M47 5h1m-2 1h2m11 1h1m28 5h1m-2 1h2m-2 1h2m-2 1h1m-1 1h1m12 5h1m3 2h1m-79 3h1m-4 1h1"/><path stroke="#c3b999" d="M48 5h1m-1 1h1m-3 1h2m-1 2h1m-1 1h2m-4 1h1m-36 3h1m3 1h1m-2 1h3m12 0h1m-19 1h1m3 0h3m-1 1h2m52 3h1m20 5h1m0 1h1"/><path stroke="#f9b3a7" d="M22 6h1m-2 1h1m0 2h1m0 2h1m3 0h2m-1 1h1m1 1h1m-8 1h3m0 1h1m3 0h1m-2 1h1m-4 2h2"/><path stroke="#b69b68" d="M45 7h1m-5 2h1m7 0h1m-8 1h1m-1 1h1m-1 1h1m1 4h1m-27 3h1m20 5h1m-1 1h2"/><path stroke="#efa868" d="M79 7h1m-2 2h1m-2 1h1m-6 1h1m-25 9h1m0 1h1m-1 1h1m0 1h1m-1 1h2m-6 1h1m2 0h2m-1 1h1m-2 1h2"/><path stroke="#a79e80" d="M45 8h1m14 1h1m-17 1h1m-2 1h1m-1 1h1m4 0h1m-4 1h1M9 14h1m40 0h2M8 16h3m32 0h1m-1 1h1m1 0h1m6 0h2m-33 1h1m30 0h1m0 1h1m25 1h1m-11 2h1m15 2h1m4 0h1"/><path stroke="#f1be61" d="M72 8h1m4 0h2m-8 2h1m-37 4h1m2 2h1m1 1h1m0 1h1m61 2h2m-4 1h1m1 0h5m-8 1h1m1 0h2m1 0h1m4 0h2m-9 1h1m5 0h2m-3 1h3m-44 1h1"/><path stroke="#aeae7b" d="M42 9h1m5 0h1m38 1h1m6 2h4m-4 1h2m1 0h2m-15 1h1m8 0h1m-3 1h2m4 0h1m-7 1h2m-82 1h1m78 0h2m-81 1h4m69 0h1m-71 1h3m74 0h1m-78 1h4m71 0h1m-8 1h1m-28 1h3m22 0h1m2 0h2m-30 1h2m26 0h2m5 0h1m-74 1h3m60 0h1m-68 1h3m1 0h1"/><path stroke="#b4ad8b" d="M43 9h2m-2 1h1m2 0h1m2 0h1m-3 1h3M7 14h2m2 0h1m-4 1h6m-3 1h2m-4 1h1m3 0h1m30 0h1m-30 1h1m37 0h1m-37 1h1m4 0h2m55 2h1m-1 1h1m-1 1h1m6 1h4m-2 1h4m-2 1h1m-1 1h1"/><path stroke="#8a5251" d="M52 9h1m0 1h1m-1 1h1m1 3h1m4 3h1m2 3h2m2 0h1m-5 1h1m-1 1h2m-2 1h1m30 0h4m-6 1h2m1 0h4m-5 1h5"/><path stroke="#f4bb7f" d="M76 9h1m-48 4h1m-1 1h1m15 7h4m-3 1h3m-3 1h4m-4 1h2m0 1h1m-2 1h3m-2 1h1"/><path stroke="#eb964b" d="M77 9h1m-2 1h1m-15 2h1m11 3h2m-2 1h2m24 4h1m-51 1h1m-6 1h1m4 0h3m-2 1h1m-4 1h2m1 1h1m-1 1h1"/><path stroke="#d7a046" d="M59 10h1m-19 1h1m17 0h1m-19 1h1m1 3h1m24 1h1m-33 1h1m2 0h1m28 0h1m-29 1h1m25 0h1m-23 2h2m22 0h1m-25 1h1m-5 2h1m-1 1h1"/><path stroke="#e39b79" d="M75 10h1m0 1h1m-6 1h2m-1 1h1m-43 1h1"/><path stroke="#948b70" d="M44 11h1m16 1h1m-13 2h1m0 1h2m-40 2h1m29 0h1m8 1h1m2 0h1m-4 1h1m2 0h1m1 5h3m20 0h1m-23 1h1"/><path stroke="#9a7e68" d="M46 11h1m0 1h1m1 1h1m2 1h1m-9 4h1m-2 1h1m27 0h1m-20 1h3m15 0h1"/><path stroke="#a75c62" d="M54 11h2m-1 1h1m-2 1h4m-5 1h2m1 0h4m-7 1h1m3 0h1m1 0h2m-1 1h2m-1 1h1m0 1h1m-26 1h1m23 0h2m-32 1h1m29 0h2m-32 1h1m5 0h1m26 0h1m-30 1h1"/><path stroke="#f1a844" d="M68 11h1m-1 1h1m-1 1h1m-2 1h2m9 0h1m-3 1h2m22 4h2m1 0h1m2 1h1m1 0h3m-3 1h2m-6 1h1m1 0h3m-7 1h1m3 0h2m-7 1h2m3 0h1m1 1h2m1 0h1"/><path stroke="#e09334" d="M71 11h1m2 3h1m-30 1h1m21 1h1m-2 1h1m1 1h1m31 0h1m1 0h1m-59 4h1m54 1h2m-2 1h1m-1 1h3m5 0h1"/><path stroke="#c47d64" d="M73 11h1m1 0h1m-3 1h1m-3 1h1m-1 1h2m0 2h1m22 4h1m-69 1h1m66 0h2m1 0h2"/><path stroke="#b97573" d="M74 11h1m-1 1h1m-17 3h1m12 0h1m-14 1h2m12 0h1m-14 1h1m10 0h1m-40 2h1m-2 1h1m6 0h1m31 0h1m-40 1h1m38 0h1m27 0h1m-1 1h3m-2 1h1"/><path stroke="#baba84" d="M86 11h1m-2 1h1m-2 1h3m9 0h1m-12 1h2m8 0h1m-11 1h1m4 0h1m2 0h2m-10 1h1m4 0h1m2 0h1m-65 1h2m54 0h1m9 0h1m-11 1h1m1 0h2m3 0h2m-9 1h3m2 1h1m1 0h2m-4 1h1m1 0h1m-3 1h1m-73 1h1m72 0h3m-79 1h2m8 1h1m12 0h1m-15 1h2m-5 2h2"/><path stroke="#625659" d="M44 12h1m2 6h1"/><path stroke="#7d6d5d" d="M46 12h1m-1 1h1m-1 1h1m-1 1h1m1 0h2m-1 1h3m-9 2h1m35 1h1m-66 3h1m40 2h1"/><path stroke="#954750" d="M53 12h1m-1 1h1m-21 4h1m29 1h1m-35 1h2m2 0h1m2 0h1m-9 1h1m4 2h2m-6 1h1m0 1h1m5 1h1"/><path stroke="#3a2828" d="M54 12h1m16 8h1m-1 1h1m-13 1h1m-1 1h1m9 0h1m-11 1h1m1 0h1m1 0h1m-5 1h1m9 0h2m2 0h1"/><path stroke="#592c30" d="M56 12h1m2 7h1m-26 1h1m32 1h1m-37 2h2m28 0h1m32 1h1m-62 1h3m56 0h2m-59 1h1"/><path stroke="#916347" d="M60 12h1m-16 6h1m33 0h1m-14 1h1m5 0h3m-2 1h1m1 0h1m1 0h2m19 0h1m-23 1h2m-1 1h1m-10 1h1m8 0h1m-5 1h4m-2 1h2"/><path stroke="#c47d41" d="M63 12h1m5 5h1m-2 2h1m27 0h2m1 0h1m-6 1h2m1 0h1m1 0h1m1 0h1m-47 1h2m-3 1h1m-10 1h1"/><path stroke="#908c57" d="M92 12h2m-2 1h1m-10 3h1m-64 7h2m-1 1h2m-7 1h1m1 0h1m18 0h1m-6 2h1m1 0h1m-1 1h1"/><path stroke="#ac7e53" d="M63 13h1m11 6h4m-3 1h1m-2 1h1m-38 3h1"/><path stroke="#eeb748" d="M67 13h1m-31 1h1m0 1h1m-3 1h1m2 0h2m-4 1h1m-1 1h1m75 1h1m-3 1h3m-76 1h1m63 0h1m9 0h1m-12 1h1m7 0h1m2 0h2m-6 1h1m3 0h1m-6 1h1m3 0h1m-2 1h1"/><path stroke="#918e64" d="M91 13h1m-82 5h1m-1 1h2m-1 1h3m4 0h1m-7 1h1m2 0h1m1 0h4m1 0h2m63 0h1m-65 1h1m1 0h1m32 0h1m27 0h1m-30 1h2m-3 2h1m25 0h1m2 0h2m-2 1h2m1 0h1m-3 1h1m1 1h1"/><path stroke="#a0a06f" d="M93 13h1m-3 1h2m1 0h1m-11 1h1m-43 1h1m41 0h1m-2 1h2m-73 2h2m5 1h1m2 0h2m62 0h1m-74 1h1m74 0h2m-8 1h1m5 0h2m-71 1h1m60 0h2m-62 1h1m60 0h1m1 0h2m-66 1h1m60 0h2m1 0h2m2 0h1m-1 1h1m1 0h1m-3 1h3"/><path stroke="#edb32e" d="M36 14h1m-1 1h2m-1 1h1m64 0h1m-65 1h1m61 0h1m-63 1h2m59 0h1m-62 1h4m-4 1h3m1 0h2m-5 1h2m2 0h1"/><path stroke="#684e41" d="M48 14h1m0 3h1m-8 1h1m1 1h1m7 0h1m-2 1h1m1 1h1m18 0h1m5 0h1m-9 1h4m-2 1h2m-4 1h1m7 0h1"/><path stroke="#f4a432" d="M66 14h1m8 0h2m-11 1h3m-3 1h1m36 0h1m-3 1h2m-5 1h1m2 0h1m5 0h2m1 0h5m-11 1h2m1 0h6m-8 1h1m1 0h1m-3 3h1"/><path stroke="#b08438" d="M42 15h1m24 2h1m-1 1h1m-1 1h1m-26 2h1m-1 1h2m10 2h1"/><path stroke="#8e5d6f" d="M54 15h1m1 0h1m-4 1h1m3 0h1m-4 1h2m1 0h2m-4 1h1m1 0h5m-5 1h2m1 0h1m-2 1h1m-1 1h1m1 0h1m-1 1h2m-1 1h1m1 1h1m-2 1h1"/><path stroke="#764b5e" d="M55 15h1m-1 1h2m-1 1h1m-1 1h1m-2 1h2m-2 1h4m1 0h1m-7 1h1m2 0h2m1 0h1m-1 1h1m-1 1h1m3 0h1m-5 1h1m1 0h1m-5 1h1m1 0h3m1 0h1"/><path stroke="#e47841" d="M73 15h1m-23 6h1m0 2h1m-1 1h1"/><path stroke="#d66062" d="M33 16h2m-1 1h1m-6 1h1m1 0h1m-5 3h1m4 1h1m3 1h1m-6 2h1m-1 1h1"/><path stroke="#543b34" d="M54 16h1m-13 3h1m20 0h1m-12 2h1m-38 1h1m58 0h1m-5 1h1m7 0h1m-10 1h1m1 0h1m-50 1h1m48 0h2m1 0h1m3 0h1"/><path stroke="#756d48" d="M62 16h1m-39 4h1m-11 1h1m1 0h1m7 0h2m-10 1h5m3 0h1m-1 1h2m56 0h1m-60 1h1m13 0h1m44 0h1m-63 1h2m32 0h2m-20 1h1m-7 1h1m5 0h1"/><path stroke="#bc474e" d="M31 17h2m-1 1h1m0 2h1m-1 1h3m-10 1h2m8 0h1m-7 1h1m5 1h1m-5 2h1"/><path stroke="#d1a746" d="M41 17h1m-1 3h1m-1 1h1m-4 1h4m-4 1h2m1 0h4m21 0h1m-26 1h5m20 0h2m-27 1h5m20 0h1"/><path stroke="#e77929" d="M112 17h1m2 0h1m-10 1h1m2 0h1m-4 1h1m-4 5h3m-54 1h1m49 0h5m-55 1h1"/><path stroke="#833743" d="M30 18h1m3 0h3m-9 1h1m7 1h1m-1 1h1m0 1h1m-3 1h1m-5 1h1m0 1h1m0 1h1"/><path stroke="#682b33" d="M33 18h1m-2 1h1m1 0h2m-7 1h1m2 0h1m2 0h1m-4 1h1m29 0h1m-35 1h4m-4 1h1m4 0h2m-3 1h4m-2 2h1"/><path stroke="#de822b" d="M96 18h2m-3 1h1m2 0h1m2 4h1m-2 1h1"/><path stroke="#b4bf96" d="M81 19h2m-2 1h3m-4 1h2m1 0h2m-4 1h1"/><path stroke="#7c513d" d="M72 20h1m1 0h1m-2 1h2m0 1h2m1 0h1m-8 1h1m2 0h3m-5 1h1m4 0h1m-1 1h1"/><path stroke="#bf9599" d="M29 21h1"/><path stroke="#b3b66b" d="M11 24h1m13 0h2M9 25h2m15 0h1m-3 2h1m-2 1h1m11 1h1"/><path stroke="#98954c" d="M27 24h2m-2 1h2m-2 1h1m-3 1h2m4 0h1m-8 1h4m2 0h2m3 0h1m-6 1h1"/><path stroke="#45471f" d="M23 25h1m5 1h2m-2 1h1"/><path stroke="#6f732b" d="M29 25h1m-2 1h1m-2 1h2m6 0h1"/></svg>